<?xml version="1.0" encoding="UTF-8"?>
<svg version="1.1" xmlns="http://www.w3.org/2000/svg" width="204" height="204">
<path d="M0 0 C67.32 0 134.64 0 204 0 C204 67.32 204 134.64 204 204 C136.68 204 69.36 204 0 204 C0 136.68 0 69.36 0 0 Z " fill="#010102" transform="translate(0,0)"/>
<path d="M0 0 C3.44312714 2.1244827 4.71617547 3.14852641 6 7 C5.04370117 9.81567383 5.04370117 9.81567383 3.54296875 13.20703125 C3.27994461 13.81004562 3.01692047 14.41306 2.7459259 15.03434753 C1.90213768 16.96450939 1.04543139 18.88858827 0.1875 20.8125 C-0.65726827 22.72668072 -1.49926027 24.64203396 -2.33879089 26.55851746 C-3.10595538 28.30662969 -3.88054276 30.05147879 -4.65551758 31.79614258 C-5.92818448 34.82886597 -7.0049987 37.86655907 -8 41 C-4.7 41.33 -1.4 41.66 2 42 C2 42.33 2 42.66 2 43 C0.81664062 43.03738281 -0.36671875 43.07476562 -1.5859375 43.11328125 C-18.90290766 43.70010981 -18.90290766 43.70010981 -33 53 C-31.61791117 48.66191335 -29.99284207 44.51576422 -28.171875 40.34375 C-27.90038635 39.71956177 -27.62889771 39.09537354 -27.34918213 38.45227051 C-26.48518587 36.4671252 -25.61772794 34.48351658 -24.75 32.5 C-23.90086764 30.55287679 -23.05246794 28.60543768 -22.20471191 26.65771484 C-21.64195148 25.36690088 -21.07742094 24.07685717 -20.5111084 22.78759766 C-19.0906511 19.54658313 -17.70531938 16.29715901 -16.38085938 13.015625 C-16.11936096 12.37725708 -15.85786255 11.73888916 -15.58843994 11.08117676 C-14.87259021 9.32766961 -14.16879904 7.56925352 -13.46582031 5.81054688 C-10.46614183 0.05899813 -6.272398 -1.14496154 0 0 Z " fill="#1E1F22" transform="translate(96,71)"/>
</svg>
